<svg xmlns="http://www.w3.org/2000/svg" viewBox="0 0 1200 760" width="1200" height="760"><title>The exported model in a BIM viewer (placeholder)</title><defs><linearGradient id="lg1" x1="0" y1="0" x2="0" y2="1"><stop offset="0" stop-color="#3A4250"/><stop offset="1" stop-color="#1C2027"/></linearGradient><clipPath id="cp2"><rect x="270" y="40" width="650" height="720"/></clipPath></defs><rect x="0" y="0" width="1200" height="760" fill="#20242B"/><rect x="0" y="0" width="1200" height="40" fill="#2B313B"/><text x="16" y="25" font-family="Segoe UI, Segoe UI Variable Text, Arial, sans-serif" font-size="13" fill="#E5E7EB" font-weight="700">BIM viewer</text><text x="110" y="25" font-family="Segoe UI, Segoe UI Variable Text, Arial, sans-serif" font-size="12" fill="#9CA3AF">F4.ifc   ·   IFC4X3_ADD2</text><rect x="0" y="40" width="270" height="720" fill="#262B33"/><text x="14" y="66" font-family="Segoe UI, Segoe UI Variable Text, Arial, sans-serif" font-size="12" fill="#E5E7EB" font-weight="700">Model tree</text><text x="14" y="92" font-family="Segoe UI, Segoe UI Variable Text, Arial, sans-serif" font-size="11.5" fill="#CBD5E1">IfcProject  Area 200 Foundations</text><text x="28" y="116" font-family="Segoe UI, Segoe UI Variable Text, Arial, sans-serif" font-size="11.5" fill="#CBD5E1">IfcSite</text><text x="42" y="140" font-family="Segoe UI, Segoe UI Variable Text, Arial, sans-serif" font-size="11.5" fill="#CBD5E1">IfcFooting  F4  (PAD_FOOTING)</text><text x="56" y="164" font-family="Segoe UI, Segoe UI Variable Text, Arial, sans-serif" font-size="11.5" fill="#CBD5E1">IfcReinforcingBar  bottom, long  x 9</text><text x="56" y="188" font-family="Segoe UI, Segoe UI Variable Text, Arial, sans-serif" font-size="11.5" fill="#CBD5E1">IfcReinforcingBar  bottom, short  x 19</text><text x="42" y="212" font-family="Segoe UI, Segoe UI Variable Text, Arial, sans-serif" font-size="11.5" fill="#CBD5E1">IfcColumn  P4a  (pedestal)</text><rect x="4" y="221" width="262" height="22" rx="3" fill="#334155"/><text x="56" y="236" font-family="Segoe UI, Segoe UI Variable Text, Arial, sans-serif" font-size="11.5" fill="#F1F5F9">IfcReinforcingBar  vertical  x 8</text><text x="56" y="260" font-family="Segoe UI, Segoe UI Variable Text, Arial, sans-serif" font-size="11.5" fill="#CBD5E1">IfcReinforcingBar  ties  x 7</text><text x="56" y="284" font-family="Segoe UI, Segoe UI Variable Text, Arial, sans-serif" font-size="11.5" fill="#CBD5E1">IfcMechanicalFastener  rods  x 4</text><text x="56" y="308" font-family="Segoe UI, Segoe UI Variable Text, Arial, sans-serif" font-size="11.5" fill="#CBD5E1">IfcPlate  base plate</text><text x="42" y="332" font-family="Segoe UI, Segoe UI Variable Text, Arial, sans-serif" font-size="11.5" fill="#CBD5E1">IfcColumn  P4b  (pedestal)</text><text x="28" y="356" font-family="Segoe UI, Segoe UI Variable Text, Arial, sans-serif" font-size="11.5" fill="#CBD5E1">IfcGrid  A-D, 1-4</text><rect x="920" y="40" width="280" height="720" fill="#262B33"/><text x="934" y="66" font-family="Segoe UI, Segoe UI Variable Text, Arial, sans-serif" font-size="12" fill="#E5E7EB" font-weight="700">Properties</text><text x="934" y="96" font-family="Segoe UI, Segoe UI Variable Text, Arial, sans-serif" font-size="11.5" fill="#94A3B8">Entity</text><text x="1070" y="96" font-family="Segoe UI, Segoe UI Variable Text, Arial, sans-serif" font-size="11.5" fill="#F1F5F9">IfcReinforcingBar</text><text x="934" y="120" font-family="Segoe UI, Segoe UI Variable Text, Arial, sans-serif" font-size="11.5" fill="#94A3B8">PredefinedType</text><text x="1070" y="120" font-family="Segoe UI, Segoe UI Variable Text, Arial, sans-serif" font-size="11.5" fill="#F1F5F9">MAIN</text><text x="934" y="144" font-family="Segoe UI, Segoe UI Variable Text, Arial, sans-serif" font-size="11.5" fill="#94A3B8">NominalDiameter</text><text x="1070" y="144" font-family="Segoe UI, Segoe UI Variable Text, Arial, sans-serif" font-size="11.5" fill="#F1F5F9">25.4 mm</text><text x="934" y="168" font-family="Segoe UI, Segoe UI Variable Text, Arial, sans-serif" font-size="11.5" fill="#94A3B8">BarLength</text><text x="1070" y="168" font-family="Segoe UI, Segoe UI Variable Text, Arial, sans-serif" font-size="11.5" fill="#F1F5F9">1.93 m</text><text x="934" y="192" font-family="Segoe UI, Segoe UI Variable Text, Arial, sans-serif" font-size="11.5" fill="#94A3B8">SteelGrade</text><text x="1070" y="192" font-family="Segoe UI, Segoe UI Variable Text, Arial, sans-serif" font-size="11.5" fill="#F1F5F9">ASTM A615 Gr. 60</text><text x="934" y="240" font-family="Segoe UI, Segoe UI Variable Text, Arial, sans-serif" font-size="11.5" fill="#C4B8FF" font-weight="700">FoundaTrix_Bar</text><text x="934" y="264" font-family="Segoe UI, Segoe UI Variable Text, Arial, sans-serif" font-size="11.5" fill="#94A3B8">Group</text><text x="1070" y="264" font-family="Segoe UI, Segoe UI Variable Text, Arial, sans-serif" font-size="11.5" fill="#F1F5F9">P4a vertical</text><text x="934" y="288" font-family="Segoe UI, Segoe UI Variable Text, Arial, sans-serif" font-size="11.5" fill="#94A3B8">Count</text><text x="1070" y="288" font-family="Segoe UI, Segoe UI Variable Text, Arial, sans-serif" font-size="11.5" fill="#F1F5F9">8</text><text x="934" y="312" font-family="Segoe UI, Segoe UI Variable Text, Arial, sans-serif" font-size="11.5" fill="#94A3B8">Size</text><text x="1070" y="312" font-family="Segoe UI, Segoe UI Variable Text, Arial, sans-serif" font-size="11.5" fill="#F1F5F9">#8</text><text x="934" y="336" font-family="Segoe UI, Segoe UI Variable Text, Arial, sans-serif" font-size="11.5" fill="#94A3B8">Design</text><text x="1070" y="336" font-family="Segoe UI, Segoe UI Variable Text, Arial, sans-serif" font-size="11.5" fill="#F1F5F9">Current analysis</text><rect x="270" y="40" width="650" height="720" fill="url(#lg1)"/><g clip-path="url(#cp2)"><polygon points="388.13,315 699.9,495 699.9,435 388.13,255" fill="rgba(184,169,246,0.20)" stroke="rgba(184,169,246,0.6)" stroke-width="1" stroke-linejoin="round"/><polygon points="881.77,390 699.9,495 699.9,435 881.77,330" fill="rgba(143,126,230,0.20)" stroke="rgba(184,169,246,0.6)" stroke-width="1" stroke-linejoin="round"/><line x1="568.7" y1="210.75" x2="864.88" y2="381.75" stroke="#E8590C" stroke-width="2.4"/><line x1="550.51" y1="221.25" x2="846.7" y2="392.25" stroke="#E8590C" stroke-width="2.4"/><line x1="532.33" y1="231.75" x2="828.51" y2="402.75" stroke="#E8590C" stroke-width="2.4"/><line x1="514.14" y1="242.25" x2="810.32" y2="413.25" stroke="#E8590C" stroke-width="2.4"/><line x1="495.95" y1="252.75" x2="792.14" y2="423.75" stroke="#E8590C" stroke-width="2.4"/><line x1="477.77" y1="263.25" x2="773.95" y2="434.25" stroke="#E8590C" stroke-width="2.4"/><line x1="459.58" y1="273.75" x2="755.76" y2="444.75" stroke="#E8590C" stroke-width="2.4"/><line x1="441.4" y1="284.25" x2="737.58" y2="455.25" stroke="#E8590C" stroke-width="2.4"/><line x1="423.21" y1="294.75" x2="719.39" y2="465.75" stroke="#E8590C" stroke-width="2.4"/><line x1="405.02" y1="305.25" x2="701.2" y2="476.25" stroke="#E8590C" stroke-width="2.4"/><line x1="571.3" y1="208.35" x2="405.02" y2="304.35" stroke="#F59F00" stroke-width="2.2"/><line x1="586.75" y1="217.27" x2="420.47" y2="313.27" stroke="#F59F00" stroke-width="2.2"/><line x1="602.2" y1="226.19" x2="435.93" y2="322.19" stroke="#F59F00" stroke-width="2.2"/><line x1="617.65" y1="235.11" x2="451.38" y2="331.11" stroke="#F59F00" stroke-width="2.2"/><line x1="633.11" y1="244.03" x2="466.83" y2="340.03" stroke="#F59F00" stroke-width="2.2"/><line x1="648.56" y1="252.96" x2="482.28" y2="348.96" stroke="#F59F00" stroke-width="2.2"/><line x1="664.01" y1="261.88" x2="497.73" y2="357.88" stroke="#F59F00" stroke-width="2.2"/><line x1="679.46" y1="270.8" x2="513.18" y2="366.8" stroke="#F59F00" stroke-width="2.2"/><line x1="694.91" y1="279.72" x2="528.64" y2="375.72" stroke="#F59F00" stroke-width="2.2"/><line x1="710.36" y1="288.64" x2="544.09" y2="384.64" stroke="#F59F00" stroke-width="2.2"/><line x1="725.82" y1="297.56" x2="559.54" y2="393.56" stroke="#F59F00" stroke-width="2.2"/><line x1="741.27" y1="306.48" x2="574.99" y2="402.48" stroke="#F59F00" stroke-width="2.2"/><line x1="756.72" y1="315.4" x2="590.44" y2="411.4" stroke="#F59F00" stroke-width="2.2"/><line x1="772.17" y1="324.32" x2="605.89" y2="420.32" stroke="#F59F00" stroke-width="2.2"/><line x1="787.62" y1="333.24" x2="621.35" y2="429.24" stroke="#F59F00" stroke-width="2.2"/><line x1="803.07" y1="342.17" x2="636.8" y2="438.17" stroke="#F59F00" stroke-width="2.2"/><line x1="818.53" y1="351.09" x2="652.25" y2="447.09" stroke="#F59F00" stroke-width="2.2"/><line x1="833.98" y1="360.01" x2="667.7" y2="456.01" stroke="#F59F00" stroke-width="2.2"/><line x1="849.43" y1="368.93" x2="683.15" y2="464.93" stroke="#F59F00" stroke-width="2.2"/><line x1="864.88" y1="377.85" x2="698.6" y2="473.85" stroke="#F59F00" stroke-width="2.2"/><polygon points="570,150 881.77,330 699.9,435 388.13,255" fill="rgba(228,218,255,0.14)" stroke="rgba(184,169,246,0.7)" stroke-width="1" stroke-linejoin="round"/><polygon points="505.05,255 570,292.5 570,187.5 505.05,150" fill="rgba(108,203,197,0.18)" stroke="rgba(108,203,197,0.7)" stroke-width="1" stroke-linejoin="round"/><polygon points="634.95,255 570,292.5 570,187.5 634.95,150" fill="rgba(59,159,154,0.18)" stroke="rgba(108,203,197,0.7)" stroke-width="1" stroke-linejoin="round"/><line x1="570" y1="271.5" x2="570" y2="127.5" stroke="#4CC9F0" stroke-width="3"/><line x1="570" y1="271.5" x2="546.62" y2="258" stroke="#4CC9F0" stroke-width="3"/><line x1="595.98" y1="286.5" x2="595.98" y2="142.5" stroke="#4CC9F0" stroke-width="3"/><line x1="595.98" y1="286.5" x2="619.36" y2="300" stroke="#4CC9F0" stroke-width="3"/><line x1="621.96" y1="301.5" x2="621.96" y2="157.5" stroke="#4CC9F0" stroke-width="3"/><line x1="621.96" y1="301.5" x2="645.34" y2="315" stroke="#4CC9F0" stroke-width="3"/><line x1="595.98" y1="316.5" x2="595.98" y2="172.5" stroke="#4CC9F0" stroke-width="3"/><line x1="595.98" y1="316.5" x2="619.36" y2="330" stroke="#4CC9F0" stroke-width="3"/><line x1="570" y1="331.5" x2="570" y2="187.5" stroke="#4CC9F0" stroke-width="3"/><line x1="570" y1="331.5" x2="593.38" y2="345" stroke="#4CC9F0" stroke-width="3"/><line x1="544.02" y1="316.5" x2="544.02" y2="172.5" stroke="#4CC9F0" stroke-width="3"/><line x1="544.02" y1="316.5" x2="567.4" y2="330" stroke="#4CC9F0" stroke-width="3"/><line x1="518.04" y1="301.5" x2="518.04" y2="157.5" stroke="#4CC9F0" stroke-width="3"/><line x1="518.04" y1="301.5" x2="494.66" y2="288" stroke="#4CC9F0" stroke-width="3"/><line x1="544.02" y1="286.5" x2="544.02" y2="142.5" stroke="#4CC9F0" stroke-width="3"/><line x1="544.02" y1="286.5" x2="520.64" y2="273" stroke="#4CC9F0" stroke-width="3"/><polygon points="570,216 621.96,246 570,276 518.04,246" fill="none" stroke="#38BDF8" stroke-width="1.6" stroke-linejoin="round"/><polygon points="570,203.4 621.96,233.4 570,263.4 518.04,233.4" fill="none" stroke="#38BDF8" stroke-width="1.6" stroke-linejoin="round"/><polygon points="570,190.8 621.96,220.8 570,250.8 518.04,220.8" fill="none" stroke="#38BDF8" stroke-width="1.6" stroke-linejoin="round"/><polygon points="570,178.2 621.96,208.2 570,238.2 518.04,208.2" fill="none" stroke="#38BDF8" stroke-width="1.6" stroke-linejoin="round"/><polygon points="570,165.6 621.96,195.6 570,225.6 518.04,195.6" fill="none" stroke="#38BDF8" stroke-width="1.6" stroke-linejoin="round"/><polygon points="570,157.5 621.96,187.5 570,217.5 518.04,187.5" fill="none" stroke="#38BDF8" stroke-width="1.6" stroke-linejoin="round"/><polygon points="570,149.4 621.96,179.4 570,209.4 518.04,179.4" fill="none" stroke="#38BDF8" stroke-width="1.6" stroke-linejoin="round"/><polygon points="570,112.5 634.95,150 570,187.5 505.05,150" fill="rgba(175,237,233,0.16)" stroke="rgba(108,203,197,0.8)" stroke-width="1" stroke-linejoin="round"/><polygon points="570,117.9 619.36,146.4 570,174.9 520.64,146.4" fill="#9AA6B2" stroke="#6B7785" stroke-width="1" stroke-linejoin="round"/><polygon points="619.36,150 570,178.5 570,174.9 619.36,146.4" fill="#6B7785"/><line x1="570" y1="202.5" x2="570" y2="111.9" stroke="#D1D5DB" stroke-width="3"/><ellipse cx="570" cy="123.3" rx="7" ry="4" fill="#4B5563" stroke="#9CA3AF" stroke-width="1"/><rect x="565" y="116.3" width="10" height="6" rx="1" fill="#6B7280"/><line x1="603.77" y1="222" x2="603.77" y2="131.4" stroke="#D1D5DB" stroke-width="3"/><ellipse cx="603.77" cy="142.8" rx="7" ry="4" fill="#4B5563" stroke="#9CA3AF" stroke-width="1"/><rect x="598.77" y="135.8" width="10" height="6" rx="1" fill="#6B7280"/><line x1="536.23" y1="222" x2="536.23" y2="131.4" stroke="#D1D5DB" stroke-width="3"/><ellipse cx="536.23" cy="142.8" rx="7" ry="4" fill="#4B5563" stroke="#9CA3AF" stroke-width="1"/><rect x="531.23" y="135.8" width="10" height="6" rx="1" fill="#6B7280"/><line x1="570" y1="241.5" x2="570" y2="150.9" stroke="#D1D5DB" stroke-width="3"/><ellipse cx="570" cy="162.3" rx="7" ry="4" fill="#4B5563" stroke="#9CA3AF" stroke-width="1"/><rect x="565" y="155.3" width="10" height="6" rx="1" fill="#6B7280"/><polygon points="660.93,345 725.88,382.5 725.88,277.5 660.93,240" fill="rgba(108,203,197,0.12)" stroke="rgba(108,203,197,0.45)" stroke-width="1" stroke-linejoin="round"/><polygon points="790.84,345 725.88,382.5 725.88,277.5 790.84,240" fill="rgba(59,159,154,0.12)" stroke="rgba(108,203,197,0.45)" stroke-width="1" stroke-linejoin="round"/><polygon points="725.88,202.5 790.84,240 725.88,277.5 660.93,240" fill="rgba(175,237,233,0.12)" stroke="rgba(108,203,197,0.5)" stroke-width="1" stroke-linejoin="round"/></g><rect x="284" y="708" width="330" height="36" rx="6" fill="rgba(15,23,42,0.75)" stroke="#475569" stroke-width="1"/><text x="298" y="731" font-family="Segoe UI, Segoe UI Variable Text, Arial, sans-serif" font-size="11.5" fill="#E2E8F0">Selected: 8 vertical bars, P4a  ·  from the current design</text></svg>
